# AST/ASF file generated using VICON BodyLanguage
# -----------------------------------------------
:version 1.10
:name VICON
:units
  mass 1.0
  length 0.45
  angle deg
:documentation
   .ast/.asf automatically generated from VICON data using
   VICON BodyBuilder and BodyLanguage model FoxedUp or BRILLIANT.MOD
:root
   order TX TY TZ RX RY RZ
   axis XYZ
   position 0 0 0  
   orientation 0 0 0 
:bonedata
  begin
     id 1 
     name lhipjoint
     direction 0.567149 -0.783011 0.255413 
     length 2.28399 
     axis 0 0 0  XYZ
  end
  begin
     id 2 
     name lfemur
     direction 0.34202 -0.939693 0  
     length 7.34031  
     axis 0 0 20  XYZ
    dof rx ry rz
    limits (-160.0 20.0)
           (-70.0 70.0)
           (-60.0 70.0)
  end
  begin
     id 3 
     name ltibia
     direction 0.34202 -0.939693 0   
     length 6.9833   
     axis 0 0 20   XYZ
    dof rx
    limits (-10.0 170.0)
  end
  begin
     id 4 
     name lfoot
     direction 0.136498 -0.375025 0.91691   
     length 2.33665   
     axis -90 7.62852e-016 20   XYZ
    dof rx rz
    limits (-45.0 90.0)
           (-70.0 20.0)
  end
  begin
     id 5 
     name ltoes
     direction 1.5367e-011 -4.21617e-011 1   
     length 1.15039   
     axis -90 7.62852e-016 20   XYZ
    dof rx
    limits (-90.0 20.0)
  end
  begin
     id 6 
     name rhipjoint
     direction -0.602854 -0.758518 0.247423   
     length 2.35775  
     axis 0 0 0  XYZ 
  end
  begin
     id 7 
     name rfemur
     direction -0.34202 -0.939693 0   
     length 7.43932   
     axis 0 0 -20   XYZ
    dof rx ry rz
    limits (-160.0 20.0)
           (-70.0 70.0)
           (-70.0 60.0)
  end
  begin
     id 8 
     name rtibia
     direction -0.34202 -0.939693 0   
     length 7.11893   
     axis 0 0 -20   XYZ
    dof rx
    limits (-10.0 170.0)
 end
 begin
     id 9 
     name rfoot
     direction -0.131771 -0.362037 0.922803   
     length 2.53019  
     axis -90 -7.62852e-016 -20   XYZ
    dof rx rz
    limits (-45.0 90.0)
           (-20.0 70.0)
  end
  begin
     id 10 
     name rtoes
     direction -1.53733e-011 -4.21932e-011 1   
     length 1.24596   
     axis -90 -7.62852e-016 -20   XYZ
    dof rx
    limits (-90.0 20.0)
  end
  begin
     id 11 
     name lowerback
     direction 0.0235427 0.999023 -0.0374125   
     length 2.21768   
     axis 0 0 0   XYZ
    dof rx ry rz
    limits (-20.0 45.0)
           (-30.0 30.0)
           (-30.0 30.0)
  end
  begin
     id 12 
     name upperback
     direction 0.0302156 0.996818 -0.073759   
     length 2.20352   
     axis 0 0 0   XYZ
    dof rx ry rz
    limits (-20.0 45.0)
           (-30.0 30.0)
           (-30.0 30.0)
  end
  begin
     id 13 
     name thorax
     direction 0.0187169 0.998235 -0.0563532   
     length 2.22103   
     axis 0 0 0   XYZ
    dof rx ry rz
    limits (-20.0 45.0)
           (-30.0 30.0)
           (-30.0 30.0)
  end
  begin
     id 14 
     name lowerneck
     direction -0.119528 0.987423 0.103481   
     length 1.72948   
     axis 0 0 0   XYZ
    dof rx ry rz
    limits (-20.0 45.0)
           (-30.0 30.0)
           (-30.0 30.0)
  end
  begin
     id 15 
     name upperneck
     direction 0.248049 0.963095 -0.104496   
     length 1.74979   
     axis 0 0 0   XYZ
    dof rx ry rz
    limits (-20.0 45.0)
           (-30.0 30.0)
           (-30.0 30.0)
  end
  begin
     id 16
     name head
     direction 0.0903589 0.994284 -0.056876  
     length 1.78268  
     axis 0 0 0   XYZ
    dof rx ry rz
    limits (-20.0 45.0)
           (-30.0 30.0)
           (-30.0 30.0)
  end
  begin
     id 17 
     name lclavicle
     direction 0.946008 0.242039 -0.215608  
     length 3.80783  
     axis 0 0 0   XYZ
    dof ry rz
    limits (-20.0 10.0)
           (0.0 20.0)
  end
  begin
     id 18 
     name lhumerus
     direction 1 -4.48991e-011 -2.25695e-027   
     length 4.83125   
     axis 180 -30 -90   XYZ
    dof rx ry rz
    limits (-60.0 90.0)
           (-90.0 90.0)
           (-90.0 90.0)
  end
  begin
     id 19
     name lradius
     direction 0.999991 0.00366712 -0.00211721   
     length 3.00391   
     axis 180 -30 -90   XYZ
    dof rx
    limits (-10.0 170.0)
  end
  begin
     id 20
     name lwrist
     direction 0.999991 0.00393016 -0.00141978   
     length 1.50195   
     axis -1.00488e-014 90 90   XYZ
    dof ry
    limits (-180.0 0.0)
 end
  begin
     id 21 
     name lhand
     direction 1 -4.49123e-011 2.72098e-026   
     length 1.2717   
     axis -1.73687e-014 90 90   XYZ
    dof rx rz
    limits (-90.0 90.0)
           (-45.0 45.0)
  end
  begin
     id 22 
     name lfingers
     direction 1 -4.48678e-011 5.4479e-026   
     length 1.02528   
     axis -3.47372e-014 90 90   XYZ
    dof rx
    limits (0.0 90.0)
  end
  begin
     id 23
     name lthumb
     direction 0.707107 -6.34851e-011 0.707107   
     length 1.4721   
     axis -90 45 -1.62303e-014   XYZ
    dof rx rz
    limits (-45.0 45.0)
           (-45.0 45.0)
  end
  begin
     id 24 
     name rclavicle
     direction -0.981723 0.189447 -0.0181673   
     length 3.74989  
     axis 0 0 0   XYZ 
    dof ry rz
    limits (-10.0 20.0)
           (-20.0 0.0)
  end
  begin
     id 25 
     name rhumerus
     direction -1 -4.48985e-011 2.38206e-027  
     length 4.61118   
     axis 180 30 90   XYZ
    dof rx ry rz
    limits (-90.0 60.0)
           (-90.0 90.0)
           (-90.0 90.0)
  end
  begin
     id 26 
     name rradius
     direction -1 -4.48977e-011 7.41019e-027   
     length 2.91491   
     axis 180 30 90   XYZ
    dof rx
    limits (-10.0 170.0)
  end
  begin
     id 27 
     name rwrist
     direction -1 -4.48549e-011 1.3624e-026   
     length 1.45745   
     axis -1.00488e-014 -90 -90   XYZ
    dof ry
    limits (-180.0 0.0)
  end
  begin
     id 28
     name rhand
     direction -1 -4.49107e-011 2.72109e-026   
     length 1.30769   
     axis -1.73687e-014 -90 -90   XYZ
    dof rx rz
    limits (-90.0 90.0)
           (-45.0 45.0)
  end
  begin
     id 29
     name rfingers
     direction -1 -4.48919e-011 5.44468e-026   
     length 1.05429   
     axis -3.47372e-014 -90 -90   XYZ
    dof rx
    limits (0.0 90.0)
  end
  begin
     id 30
     name rthumb
     direction -0.707107 -6.35315e-011 0.707107   
     length 1.51376   
     axis -90 -45 1.62303e-014   XYZ
    dof rx rz
    limits (-45.0 45.0)
           (-45.0 45.0)
  end
:hierarchy
  begin
    root lhipjoint rhipjoint lowerback
    lhipjoint lfemur
    lfemur ltibia
    ltibia lfoot
    lfoot ltoes
    rhipjoint rfemur
    rfemur rtibia
    rtibia rfoot
    rfoot rtoes
    lowerback upperback
    upperback thorax
    thorax lowerneck lclavicle rclavicle
    lowerneck upperneck
    upperneck head
    lclavicle lhumerus
    lhumerus lradius
    lradius lwrist
    lwrist lhand lthumb
    lhand lfingers
    rclavicle rhumerus
    rhumerus rradius
    rradius rwrist
    rwrist rhand rthumb
    rhand rfingers
  end

#!OML:ASF X:\für Bonn\!DataBase\2005_08_11_Bastian_Final\c3d\Bastian.ASF
:FULLY-SPECIFIED
:DEGREES
1
root 31.1903 17.3923 -1.56771 466.513 -88.5877 -117.107
lowerback 8.13988 -0.46039 0.818983
upperback 9.79646 -1.08772 0.362029
thorax 5.66437 -0.71572 -0.0678359
lowerneck 1.85262 -2.77404 -3.09173
upperneck 15.281 -4.96877 6.35483
head 4.49084 -2.47777 2.28752
rclavicle 8.03214e-015 -7.95139e-016
rhumerus -29.6113 7.89365 -86.4863
rradius 36.6105
rwrist -3.9127
rhand -16.6765 0.775591
rfingers 7.12502
rthumb 9.54748 -28.9881
lclavicle 8.03214e-015 -7.95139e-016
lhumerus -18.0323 -13.2968 87.8696
lradius 33.9955
lwrist 22.8108
lhand -13.4679 -7.80911
lfingers 7.12502
lthumb 12.6422 21.7883
rfemur -16.2252 -3.12575 20.0944
rtibia 66.5305
rfoot -9.18137 -3.91224
rtoes -1.66488
lfemur 2.3152 3.58643 -20.9209
ltibia 26.9581
lfoot -9.17579 -9.81418
ltoes 2.6469
2
root 31.0744 17.3994 -1.5708 459.259 -88.582 -109.845
lowerback 8.14428 -0.502102 0.861807
upperback 9.83952 -1.14712 0.404071
thorax 5.70874 -0.745569 -0.0466869
lowerneck 1.81763 -2.77411 -3.07041
upperneck 15.3555 -4.97489 6.34873
head 4.51915 -2.47899 2.281
rclavicle -9.91749e-015 9.80257e-015
rhumerus -29.3981 7.94052 -86.4223
rradius 36.6557
rwrist -3.96524
rhand -16.6398 0.773811
rfingers 7.12502
rthumb 9.58287 -28.9883
lclavicle -9.91749e-015 9.80257e-015
lhumerus -17.6683 -13.8752 87.8977
lradius 34.6956
lwrist 23.2324
lhand -13.5111 -7.847
lfingers 7.12502
lthumb 12.6005 21.753
rfemur -16.9993 -2.85118 20.2903
rtibia 65.0587
rfoot -9.6009 -4.05951
rtoes -2.53817
lfemur 2.89661 3.59962 -20.7916
ltibia 26.6479
lfoot -9.38252 -10.0128
ltoes 2.33103
3
root 30.9585 17.407 -1.57357 452.021 -88.5455 -102.565
lowerback 8.11895 -0.551811 0.88016
upperback 9.87393 -1.21991 0.50155
thorax 5.76198 -0.785502 0.0459107
lowerneck 1.77092 -2.77197 -3.16317
upperneck 15.425 -4.96961 6.3203
head 4.54939 -2.48092 2.28679
rclavicle 7.87374e-016 6.70277e-015
rhumerus -29.1998 8.01906 -86.2626
rradius 36.6927
rwrist -3.94164
rhand -16.6468 0.792949
rfingers 7.12502
rthumb 9.57609 -28.9694
lclavicle 7.87374e-016 6.70277e-015
lhumerus -17.2809 -14.2221 88.0081
lradius 35.3098
lwrist 23.3746
lhand -13.5176 -7.92877
lfingers 7.12502
lthumb 12.5942 21.6716
rfemur -17.731 -2.60132 20.4722
rtibia 63.4808
rfoot -9.98326 -4.17645
rtoes -3.52117
lfemur 3.47251 3.59722 -20.6513
ltibia 26.2708
lfoot -9.53599 -10.2321
ltoes 2.34924
4
root 30.8438 17.4118 -1.57716 444.991 -88.5159 -95.5168
lowerback 8.14338 -0.606034 0.878024
upperback 9.88886 -1.29652 0.569939
thorax 5.76614 -0.8274 0.12093
lowerneck 1.7956 -2.75389 -3.20032
upperneck 15.4753 -4.94447 6.28242
head 4.55939 -2.47301 2.28253
rclavicle -7.54139e-015 1.27719e-014
rhumerus -29.061 8.1426 -86.1612
rradius 36.7434
rwrist -3.98943
rhand -16.6586 0.787183
rfingers 7.12502
rthumb 9.56471 -28.9757
lclavicle -7.54139e-015 1.27719e-014
lhumerus -16.9878 -14.6102 88.0805
lradius 35.9398
lwrist 23.573
lhand -13.5488 -8.09463
lfingers 7.12502
lthumb 12.5641 21.5076
rfemur -18.3635 -2.32735 20.6099
rtibia 61.8193
rfoot -10.3299 -4.29913
rtoes -4.40069
lfemur 4.10515 3.57157 -20.5505
ltibia 25.8313
lfoot -9.6707 -10.4131
ltoes 2.05131
5
root 30.7291 17.417 -1.58066 438.095 -88.5088 -88.6298
lowerback 8.18075 -0.650543 0.834619
upperback 9.9353 -1.36512 0.643395
thorax 5.79849 -0.869331 0.223807
lowerneck 1.76802 -2.73797 -3.33424
upperneck 15.5316 -4.9252 6.30036
head 4.58353 -2.46877 2.31048
rclavicle 2.60905e-016 -3.97569e-015
rhumerus -28.877 8.27491 -86.0151
rradius 36.786
rwrist -4.0308
rhand -16.639 0.78029
rfingers 7.12502
rthumb 9.58365 -28.9817
lclavicle 2.60905e-016 -3.97569e-015
lhumerus -16.6853 -14.8934 88.1902
lradius 36.5938
lwrist 23.7069
lhand -13.5753 -8.27395
lfingers 7.12502
lthumb 12.5386 21.3298
rfemur -18.89 -2.05267 20.6779
rtibia 60.0508
rfoot -10.6075 -4.39321
rtoes -5.12422
lfemur 4.77719 3.56073 -20.4929
ltibia 25.3627
lfoot -9.8128 -10.5952
ltoes 1.85935
6
root 30.615 17.4229 -1.58524 432.133 -88.4999 -82.6574
lowerback 8.23364 -0.67711 0.774416
upperback 9.94549 -1.40625 0.703755
thorax 5.78297 -0.897033 0.322549
lowerneck 1.77693 -2.72961 -3.39667
upperneck 15.6046 -4.91761 6.2872
head 4.60508 -2.46928 2.31706
rclavicle 2.43511e-015 6.16232e-015
rhumerus -28.7484 8.31955 -85.885
rradius 36.7866
rwrist -3.98022
rhand -16.6847 0.857383
rfingers 7.12502
rthumb 9.53955 -28.9067
lclavicle 2.43511e-015 6.16232e-015
lhumerus -16.4434 -15.1667 88.3016
lradius 37.1959
lwrist 23.7889
lhand -13.6362 -8.54426
lfingers 7.12502
lthumb 12.4799 21.0631
rfemur -19.3789 -1.70308 20.7219
rtibia 58.1949
rfoot -10.8237 -4.46966
rtoes -5.17985
lfemur 5.44979 3.55855 -20.4491
ltibia 24.8374
lfoot -9.91738 -10.7348
ltoes 1.58535
7
root 30.5009 17.4277 -1.59077 425.589 -88.4507 -76.0878
lowerback 8.2492 -0.70229 0.738644
upperback 9.98053 -1.44689 0.76523
thorax 5.81508 -0.923355 0.407649
lowerneck 1.73754 -2.7405 -3.46046
upperneck 15.6569 -4.93251 6.28292
head 4.62979 -2.47874 2.32493
rclavicle 9.81499e-015 -5.66536e-015
rhumerus -28.5479 8.38937 -85.756
rradius 36.7553
rwrist -3.96867
rhand -16.7311 0.876903
rfingers 7.12502
rthumb 9.49479 -28.8892
lclavicle 9.81499e-015 -5.66536e-015
lhumerus -16.1695 -15.5337 88.3992
lradius 37.7648
lwrist 23.8633
lhand -13.7661 -8.889
lfingers 7.12502
lthumb 12.3546 20.726
rfemur -19.8002 -1.3671 20.7773
rtibia 56.2452
rfoot -11.0722 -4.48034
rtoes -4.74521
lfemur 6.13356 3.53491 -20.3753
ltibia 24.2499
lfoot -9.98056 -10.9311
ltoes 1.4806
8
root 30.3856 17.4352 -1.59706 420.367 -88.4157 -70.8469
lowerback 8.27844 -0.724795 0.672075
upperback 9.99807 -1.48354 0.823866
thorax 5.82123 -0.949245 0.507457
lowerneck 1.70274 -2.72982 -3.5313
upperneck 15.7501 -4.92124 6.26942
head 4.66486 -2.47673 2.33214
rclavicle 1.31446e-014 -3.37934e-015
rhumerus -28.3963 8.46092 -85.6385
rradius 36.7237
rwrist -3.96277
rhand -16.8105 0.940065
rfingers 7.12502
rthumb 9.41818 -28.8295
lclavicle 1.31446e-014 -3.37934e-015
lhumerus -15.9373 -15.8246 88.5311
lradius 38.2361
lwrist 23.8746
lhand -13.8886 -9.15165
lfingers 7.12502
lthumb 12.2365 20.4704
rfemur -20.183 -0.963041 20.7946
rtibia 54.2248
rfoot -11.3817 -4.43747
rtoes -3.90486
lfemur 6.87089 3.56093 -20.3162
ltibia 23.5816
lfoot -10.0021 -11.0842
ltoes 1.22993
9
root 30.271 17.4433 -1.60357 414.439 -88.3625 -64.9069
lowerback 8.30765 -0.74232 0.619482
upperback 10.0362 -1.51369 0.858037
thorax 5.84887 -0.970532 0.573419
lowerneck 1.63596 -2.7356 -3.56385
upperneck 15.8283 -4.93431 6.28326
head 4.70167 -2.48225 2.33996
rclavicle -6.83322e-015 3.57812e-015
rhumerus -28.1752 8.45174 -85.5352
rradius 36.6201
rwrist -3.83851
rhand -16.854 1.01428
rfingers 7.12502
rthumb 9.37624 -28.7572
lclavicle -6.83322e-015 3.57812e-015
lhumerus -15.6723 -16.1665 88.6183
lradius 38.6576
lwrist 23.8417
lhand -13.9735 -9.12446
lfingers 7.12502
lthumb 12.1546 20.5024
rfemur -20.5102 -0.565139 20.7886
rtibia 52.1574
rfoot -11.706 -4.38206
rtoes -2.87548
lfemur 7.64356 3.57422 -20.2619
ltibia 22.8249
lfoot -9.96814 -11.27
ltoes 0.910003
10
root 30.1579 17.4527 -1.61106 408.305 -88.3027 -58.7636
lowerback 8.38393 -0.760593 0.543029
upperback 10.0436 -1.5433 0.901159
thorax 5.81785 -0.992858 0.663636
lowerneck 1.55776 -2.7385 -3.64124
upperneck 15.9822 -4.94884 6.29319
head 4.76465 -2.49121 2.35359
rclavicle 8.44835e-016 1.23246e-014
rhumerus -28.0266 8.4623 -85.4161
rradius 36.5567
rwrist -3.77848
rhand -16.9334 1.08182
rfingers 7.12502
rthumb 9.29961 -28.6931
lclavicle 8.44835e-016 1.23246e-014
lhumerus -15.4619 -16.424 88.7518
lradius 39.0244
lwrist 23.6773
lhand -14.0123 -9.02148
lfingers 7.12502
lthumb 12.1172 20.6076
rfemur -20.7348 -0.133276 20.7488
rtibia 50.0753
rfoot -12.0744 -4.33622
rtoes -1.69228
lfemur 8.47866 3.51249 -20.2387
ltibia 21.9471
lfoot -9.8632 -11.3981
ltoes 0.890579
11
root 30.0443 17.4634 -1.61909 402.217 -88.2227 -52.6551
lowerback 8.42975 -0.780359 0.469276
upperback 10.0659 -1.57519 0.924706
thorax 5.81944 -1.0155 0.731098
lowerneck 1.49812 -2.74521 -3.70076
upperneck 16.0586 -4.96762 6.34211
head 4.80144 -2.49954 2.37673
rclavicle 5.11871e-015 -1.43125e-014
rhumerus -27.8479 8.48005 -85.3242
rradius 36.4939
rwrist -3.73234
rhand -16.9418 1.13228
rfingers 7.12502
rthumb 9.29145 -28.643
lclavicle 5.11871e-015 -1.43125e-014
lhumerus -15.2008 -16.7115 88.8536
lradius 39.29
lwrist 23.5066
lhand -14.0241 -8.99082
lfingers 7.12502
lthumb 12.1059 20.639
rfemur -20.8817 0.279513 20.7011
rtibia 48.0092
rfoot -12.4304 -4.3272
rtoes -1.00542
lfemur 9.33236 3.4331 -20.2324
ltibia 20.9859
lfoot -9.69027 -11.4853
ltoes 0.748128
12
root 29.9304 17.4773 -1.62838 397.251 -88.1221 -47.6528
lowerback 8.49464 -0.793122 0.393642
upperback 10.0491 -1.59477 0.963662
thorax 5.76839 -1.03148 0.816466
lowerneck 1.42664 -2.75727 -3.74391
upperneck 16.2145 -4.99351 6.33353
head 4.86356 -2.51339 2.37855
rclavicle -4.07509e-015 -4.96962e-016
rhumerus -27.7228 8.55291 -85.2442
rradius 36.4183
rwrist -3.71163
rhand -16.9927 1.09513
rfingers 7.12502
rthumb 9.24242 -28.6823
lclavicle -4.07509e-015 -4.96962e-016
lhumerus -15.0568 -17.0456 88.9978
lradius 39.5298
lwrist 23.4419
lhand -14.0668 -9.05853
lfingers 7.12502
lthumb 12.0647 20.5737
rfemur -21.0319 0.750892 20.6787
rtibia 45.9725
rfoot -12.6606 -4.45973
rtoes -0.866347
lfemur 10.2041 3.35919 -20.2026
ltibia 19.9505
lfoot -9.49411 -11.5462
ltoes 0.517885
13
root 29.8166 17.4891 -1.63887 393.542 -87.9901 -43.9195
lowerback 8.54909 -0.802333 0.348146
upperback 10.0591 -1.61125 1.00628
thorax 5.75175 -1.045 0.888051
lowerneck 1.34371 -2.77238 -3.79487
upperneck 16.327 -5.02339 6.36174
head 4.91545 -2.52715 2.39286
rclavicle -1.43622e-014 6.95746e-015
rhumerus -27.5433 8.58323 -85.1559
rradius 36.3765
rwrist -3.80706
rhand -16.9524 1.0722
rfingers 7.12502
rthumb 9.28124 -28.7035
lclavicle -1.43622e-014 6.95746e-015
lhumerus -14.8808 -17.3117 89.1435
lradius 39.6915
lwrist 23.3111
lhand -14.1879 -9.25243
lfingers 7.12502
lthumb 11.948 20.3866
rfemur -21.161 1.21316 20.6928
rtibia 43.9874
rfoot -12.764 -4.65826
rtoes -1.41358
lfemur 11.1065 3.28263 -20.1217
ltibia 18.8774
lfoot -9.20541 -11.6426
ltoes 0.458237
